M48
; DRILL file {KiCad 9.0.2} date 2025-06-22T19:03:26+0530
; FORMAT={-:-/ absolute / metric / decimal}
; #@! TF.CreationDate,2025-06-22T19:03:26+05:30
; #@! TF.GenerationSoftware,Kicad,Pcbnew,9.0.2
; #@! TF.FileFunction,Plated,1,2,PTH
FMAT,2
METRIC
; #@! TA.AperFunction,Plated,PTH,ComponentDrill
T1C1.000
%
G90
G05
T1
X113.0Y-85.95
X113.0Y-93.55
X123.47Y-80.74
X123.47Y-83.28
X123.47Y-85.82
X123.47Y-88.36
X123.47Y-90.9
X123.47Y-93.44
X123.47Y-95.98
X123.47Y-98.52
X123.47Y-101.06
X123.47Y-103.6
X123.47Y-106.14
X123.47Y-108.68
X123.47Y-111.22
X123.47Y-113.76
X123.47Y-116.3
X123.47Y-118.84
X123.47Y-121.38
X123.47Y-123.92
X123.47Y-126.46
X123.47Y-129.0
X132.25Y-133.71
X132.25Y-136.25
X132.25Y-138.79
X132.25Y-141.33
X141.25Y-80.74
X141.25Y-83.28
X141.25Y-85.82
X141.25Y-88.36
X141.25Y-90.9
X141.25Y-93.44
X141.25Y-95.98
X141.25Y-98.52
X141.25Y-101.06
X141.25Y-103.6
X141.25Y-106.14
X141.25Y-108.68
X141.25Y-111.22
X141.25Y-113.76
X141.25Y-116.3
X141.25Y-118.84
X141.25Y-121.38
X141.25Y-123.92
X141.25Y-126.46
X141.25Y-129.0
M30
