%TF.GenerationSoftware,KiCad,Pcbnew,9.0.2*%
%TF.CreationDate,2025-06-22T19:03:17+05:30*%
%TF.ProjectId,rpiblindstick,72706962-6c69-46e6-9473-7469636b2e6b,rev?*%
%TF.SameCoordinates,Original*%
%TF.FileFunction,Legend,Top*%
%TF.FilePolarity,Positive*%
%FSLAX46Y46*%
G04 Gerber Fmt 4.6, Leading zero omitted, Abs format (unit mm)*
G04 Created by KiCad (PCBNEW 9.0.2) date 2025-06-22 19:03:17*
%MOMM*%
%LPD*%
G01*
G04 APERTURE LIST*
%ADD10C,0.100000*%
%ADD11C,0.150000*%
%ADD12C,0.120000*%
G04 APERTURE END LIST*
D10*
X119872419Y-122624687D02*
X119396228Y-122958020D01*
X119872419Y-123196115D02*
X118872419Y-123196115D01*
X118872419Y-123196115D02*
X118872419Y-122815163D01*
X118872419Y-122815163D02*
X118920038Y-122719925D01*
X118920038Y-122719925D02*
X118967657Y-122672306D01*
X118967657Y-122672306D02*
X119062895Y-122624687D01*
X119062895Y-122624687D02*
X119205752Y-122624687D01*
X119205752Y-122624687D02*
X119300990Y-122672306D01*
X119300990Y-122672306D02*
X119348609Y-122719925D01*
X119348609Y-122719925D02*
X119396228Y-122815163D01*
X119396228Y-122815163D02*
X119396228Y-123196115D01*
X119205752Y-122196115D02*
X120205752Y-122196115D01*
X119253371Y-122196115D02*
X119205752Y-122100877D01*
X119205752Y-122100877D02*
X119205752Y-121910401D01*
X119205752Y-121910401D02*
X119253371Y-121815163D01*
X119253371Y-121815163D02*
X119300990Y-121767544D01*
X119300990Y-121767544D02*
X119396228Y-121719925D01*
X119396228Y-121719925D02*
X119681942Y-121719925D01*
X119681942Y-121719925D02*
X119777180Y-121767544D01*
X119777180Y-121767544D02*
X119824800Y-121815163D01*
X119824800Y-121815163D02*
X119872419Y-121910401D01*
X119872419Y-121910401D02*
X119872419Y-122100877D01*
X119872419Y-122100877D02*
X119824800Y-122196115D01*
X119872419Y-121291353D02*
X119205752Y-121291353D01*
X118872419Y-121291353D02*
X118920038Y-121338972D01*
X118920038Y-121338972D02*
X118967657Y-121291353D01*
X118967657Y-121291353D02*
X118920038Y-121243734D01*
X118920038Y-121243734D02*
X118872419Y-121291353D01*
X118872419Y-121291353D02*
X118967657Y-121291353D01*
X119872419Y-120053258D02*
X118872419Y-120053258D01*
X118872419Y-120053258D02*
X118872419Y-119672306D01*
X118872419Y-119672306D02*
X118920038Y-119577068D01*
X118920038Y-119577068D02*
X118967657Y-119529449D01*
X118967657Y-119529449D02*
X119062895Y-119481830D01*
X119062895Y-119481830D02*
X119205752Y-119481830D01*
X119205752Y-119481830D02*
X119300990Y-119529449D01*
X119300990Y-119529449D02*
X119348609Y-119577068D01*
X119348609Y-119577068D02*
X119396228Y-119672306D01*
X119396228Y-119672306D02*
X119396228Y-120053258D01*
X119872419Y-119053258D02*
X119205752Y-119053258D01*
X118872419Y-119053258D02*
X118920038Y-119100877D01*
X118920038Y-119100877D02*
X118967657Y-119053258D01*
X118967657Y-119053258D02*
X118920038Y-119005639D01*
X118920038Y-119005639D02*
X118872419Y-119053258D01*
X118872419Y-119053258D02*
X118967657Y-119053258D01*
X119824800Y-118148497D02*
X119872419Y-118243735D01*
X119872419Y-118243735D02*
X119872419Y-118434211D01*
X119872419Y-118434211D02*
X119824800Y-118529449D01*
X119824800Y-118529449D02*
X119777180Y-118577068D01*
X119777180Y-118577068D02*
X119681942Y-118624687D01*
X119681942Y-118624687D02*
X119396228Y-118624687D01*
X119396228Y-118624687D02*
X119300990Y-118577068D01*
X119300990Y-118577068D02*
X119253371Y-118529449D01*
X119253371Y-118529449D02*
X119205752Y-118434211D01*
X119205752Y-118434211D02*
X119205752Y-118243735D01*
X119205752Y-118243735D02*
X119253371Y-118148497D01*
X119872419Y-117577068D02*
X119824800Y-117672306D01*
X119824800Y-117672306D02*
X119777180Y-117719925D01*
X119777180Y-117719925D02*
X119681942Y-117767544D01*
X119681942Y-117767544D02*
X119396228Y-117767544D01*
X119396228Y-117767544D02*
X119300990Y-117719925D01*
X119300990Y-117719925D02*
X119253371Y-117672306D01*
X119253371Y-117672306D02*
X119205752Y-117577068D01*
X119205752Y-117577068D02*
X119205752Y-117434211D01*
X119205752Y-117434211D02*
X119253371Y-117338973D01*
X119253371Y-117338973D02*
X119300990Y-117291354D01*
X119300990Y-117291354D02*
X119396228Y-117243735D01*
X119396228Y-117243735D02*
X119681942Y-117243735D01*
X119681942Y-117243735D02*
X119777180Y-117291354D01*
X119777180Y-117291354D02*
X119824800Y-117338973D01*
X119824800Y-117338973D02*
X119872419Y-117434211D01*
X119872419Y-117434211D02*
X119872419Y-117577068D01*
X106348609Y-99862782D02*
X106396228Y-99719925D01*
X106396228Y-99719925D02*
X106443847Y-99672306D01*
X106443847Y-99672306D02*
X106539085Y-99624687D01*
X106539085Y-99624687D02*
X106681942Y-99624687D01*
X106681942Y-99624687D02*
X106777180Y-99672306D01*
X106777180Y-99672306D02*
X106824800Y-99719925D01*
X106824800Y-99719925D02*
X106872419Y-99815163D01*
X106872419Y-99815163D02*
X106872419Y-100196115D01*
X106872419Y-100196115D02*
X105872419Y-100196115D01*
X105872419Y-100196115D02*
X105872419Y-99862782D01*
X105872419Y-99862782D02*
X105920038Y-99767544D01*
X105920038Y-99767544D02*
X105967657Y-99719925D01*
X105967657Y-99719925D02*
X106062895Y-99672306D01*
X106062895Y-99672306D02*
X106158133Y-99672306D01*
X106158133Y-99672306D02*
X106253371Y-99719925D01*
X106253371Y-99719925D02*
X106300990Y-99767544D01*
X106300990Y-99767544D02*
X106348609Y-99862782D01*
X106348609Y-99862782D02*
X106348609Y-100196115D01*
X106205752Y-98767544D02*
X106872419Y-98767544D01*
X106205752Y-99196115D02*
X106729561Y-99196115D01*
X106729561Y-99196115D02*
X106824800Y-99148496D01*
X106824800Y-99148496D02*
X106872419Y-99053258D01*
X106872419Y-99053258D02*
X106872419Y-98910401D01*
X106872419Y-98910401D02*
X106824800Y-98815163D01*
X106824800Y-98815163D02*
X106777180Y-98767544D01*
X106205752Y-98386591D02*
X106205752Y-97862782D01*
X106205752Y-97862782D02*
X106872419Y-98386591D01*
X106872419Y-98386591D02*
X106872419Y-97862782D01*
X106205752Y-97577067D02*
X106205752Y-97053258D01*
X106205752Y-97053258D02*
X106872419Y-97577067D01*
X106872419Y-97577067D02*
X106872419Y-97053258D01*
X106824800Y-96291353D02*
X106872419Y-96386591D01*
X106872419Y-96386591D02*
X106872419Y-96577067D01*
X106872419Y-96577067D02*
X106824800Y-96672305D01*
X106824800Y-96672305D02*
X106729561Y-96719924D01*
X106729561Y-96719924D02*
X106348609Y-96719924D01*
X106348609Y-96719924D02*
X106253371Y-96672305D01*
X106253371Y-96672305D02*
X106205752Y-96577067D01*
X106205752Y-96577067D02*
X106205752Y-96386591D01*
X106205752Y-96386591D02*
X106253371Y-96291353D01*
X106253371Y-96291353D02*
X106348609Y-96243734D01*
X106348609Y-96243734D02*
X106443847Y-96243734D01*
X106443847Y-96243734D02*
X106539085Y-96719924D01*
X106872419Y-95815162D02*
X106205752Y-95815162D01*
X106396228Y-95815162D02*
X106300990Y-95767543D01*
X106300990Y-95767543D02*
X106253371Y-95719924D01*
X106253371Y-95719924D02*
X106205752Y-95624686D01*
X106205752Y-95624686D02*
X106205752Y-95529448D01*
X138303884Y-134622419D02*
X138303884Y-133622419D01*
X138303884Y-134098609D02*
X138875312Y-134098609D01*
X138875312Y-134622419D02*
X138875312Y-133622419D01*
X139922931Y-134527180D02*
X139875312Y-134574800D01*
X139875312Y-134574800D02*
X139732455Y-134622419D01*
X139732455Y-134622419D02*
X139637217Y-134622419D01*
X139637217Y-134622419D02*
X139494360Y-134574800D01*
X139494360Y-134574800D02*
X139399122Y-134479561D01*
X139399122Y-134479561D02*
X139351503Y-134384323D01*
X139351503Y-134384323D02*
X139303884Y-134193847D01*
X139303884Y-134193847D02*
X139303884Y-134050990D01*
X139303884Y-134050990D02*
X139351503Y-133860514D01*
X139351503Y-133860514D02*
X139399122Y-133765276D01*
X139399122Y-133765276D02*
X139494360Y-133670038D01*
X139494360Y-133670038D02*
X139637217Y-133622419D01*
X139637217Y-133622419D02*
X139732455Y-133622419D01*
X139732455Y-133622419D02*
X139875312Y-133670038D01*
X139875312Y-133670038D02*
X139922931Y-133717657D01*
X140351503Y-134241466D02*
X141113408Y-134241466D01*
X141541979Y-134574800D02*
X141684836Y-134622419D01*
X141684836Y-134622419D02*
X141922931Y-134622419D01*
X141922931Y-134622419D02*
X142018169Y-134574800D01*
X142018169Y-134574800D02*
X142065788Y-134527180D01*
X142065788Y-134527180D02*
X142113407Y-134431942D01*
X142113407Y-134431942D02*
X142113407Y-134336704D01*
X142113407Y-134336704D02*
X142065788Y-134241466D01*
X142065788Y-134241466D02*
X142018169Y-134193847D01*
X142018169Y-134193847D02*
X141922931Y-134146228D01*
X141922931Y-134146228D02*
X141732455Y-134098609D01*
X141732455Y-134098609D02*
X141637217Y-134050990D01*
X141637217Y-134050990D02*
X141589598Y-134003371D01*
X141589598Y-134003371D02*
X141541979Y-133908133D01*
X141541979Y-133908133D02*
X141541979Y-133812895D01*
X141541979Y-133812895D02*
X141589598Y-133717657D01*
X141589598Y-133717657D02*
X141637217Y-133670038D01*
X141637217Y-133670038D02*
X141732455Y-133622419D01*
X141732455Y-133622419D02*
X141970550Y-133622419D01*
X141970550Y-133622419D02*
X142113407Y-133670038D01*
X143113407Y-134622419D02*
X142780074Y-134146228D01*
X142541979Y-134622419D02*
X142541979Y-133622419D01*
X142541979Y-133622419D02*
X142922931Y-133622419D01*
X142922931Y-133622419D02*
X143018169Y-133670038D01*
X143018169Y-133670038D02*
X143065788Y-133717657D01*
X143065788Y-133717657D02*
X143113407Y-133812895D01*
X143113407Y-133812895D02*
X143113407Y-133955752D01*
X143113407Y-133955752D02*
X143065788Y-134050990D01*
X143065788Y-134050990D02*
X143018169Y-134098609D01*
X143018169Y-134098609D02*
X142922931Y-134146228D01*
X142922931Y-134146228D02*
X142541979Y-134146228D01*
X143732455Y-133622419D02*
X143827693Y-133622419D01*
X143827693Y-133622419D02*
X143922931Y-133670038D01*
X143922931Y-133670038D02*
X143970550Y-133717657D01*
X143970550Y-133717657D02*
X144018169Y-133812895D01*
X144018169Y-133812895D02*
X144065788Y-134003371D01*
X144065788Y-134003371D02*
X144065788Y-134241466D01*
X144065788Y-134241466D02*
X144018169Y-134431942D01*
X144018169Y-134431942D02*
X143970550Y-134527180D01*
X143970550Y-134527180D02*
X143922931Y-134574800D01*
X143922931Y-134574800D02*
X143827693Y-134622419D01*
X143827693Y-134622419D02*
X143732455Y-134622419D01*
X143732455Y-134622419D02*
X143637217Y-134574800D01*
X143637217Y-134574800D02*
X143589598Y-134527180D01*
X143589598Y-134527180D02*
X143541979Y-134431942D01*
X143541979Y-134431942D02*
X143494360Y-134241466D01*
X143494360Y-134241466D02*
X143494360Y-134003371D01*
X143494360Y-134003371D02*
X143541979Y-133812895D01*
X143541979Y-133812895D02*
X143589598Y-133717657D01*
X143589598Y-133717657D02*
X143637217Y-133670038D01*
X143637217Y-133670038D02*
X143732455Y-133622419D01*
X144922931Y-133955752D02*
X144922931Y-134622419D01*
X144684836Y-133574800D02*
X144446741Y-134289085D01*
X144446741Y-134289085D02*
X145065788Y-134289085D01*
D11*
X104041009Y-90620952D02*
X104088628Y-90478095D01*
X104088628Y-90478095D02*
X104136247Y-90430476D01*
X104136247Y-90430476D02*
X104231485Y-90382857D01*
X104231485Y-90382857D02*
X104374342Y-90382857D01*
X104374342Y-90382857D02*
X104469580Y-90430476D01*
X104469580Y-90430476D02*
X104517200Y-90478095D01*
X104517200Y-90478095D02*
X104564819Y-90573333D01*
X104564819Y-90573333D02*
X104564819Y-90954285D01*
X104564819Y-90954285D02*
X103564819Y-90954285D01*
X103564819Y-90954285D02*
X103564819Y-90620952D01*
X103564819Y-90620952D02*
X103612438Y-90525714D01*
X103612438Y-90525714D02*
X103660057Y-90478095D01*
X103660057Y-90478095D02*
X103755295Y-90430476D01*
X103755295Y-90430476D02*
X103850533Y-90430476D01*
X103850533Y-90430476D02*
X103945771Y-90478095D01*
X103945771Y-90478095D02*
X103993390Y-90525714D01*
X103993390Y-90525714D02*
X104041009Y-90620952D01*
X104041009Y-90620952D02*
X104041009Y-90954285D01*
X103564819Y-90049523D02*
X103564819Y-89382857D01*
X103564819Y-89382857D02*
X104564819Y-90049523D01*
X104564819Y-90049523D02*
X104564819Y-89382857D01*
X104564819Y-88478095D02*
X104564819Y-89049523D01*
X104564819Y-88763809D02*
X103564819Y-88763809D01*
X103564819Y-88763809D02*
X103707676Y-88859047D01*
X103707676Y-88859047D02*
X103802914Y-88954285D01*
X103802914Y-88954285D02*
X103850533Y-89049523D01*
X110533866Y-93940951D02*
X110533866Y-93179047D01*
X110914819Y-93559999D02*
X110152914Y-93559999D01*
D12*
%TO.C,J1*%
X130920000Y-134980000D02*
X130920000Y-142660000D01*
X130920000Y-134980000D02*
X133580000Y-134980000D01*
X130920000Y-142660000D02*
X133580000Y-142660000D01*
X132250000Y-132380000D02*
X133580000Y-132380000D01*
X133580000Y-132380000D02*
X133580000Y-133710000D01*
X133580000Y-134980000D02*
X133580000Y-142660000D01*
%TO.C,A1*%
X121430000Y-81540000D02*
X121430000Y-79940000D01*
X121750000Y-79870000D02*
X121750000Y-129870000D01*
X122090000Y-79323000D02*
X122090000Y-130417000D01*
X122360000Y-79260000D02*
X124850000Y-79260000D01*
X122360000Y-130480000D02*
X126197939Y-130480000D01*
X124850000Y-79260000D02*
X124850000Y-80173520D01*
X124850000Y-79260000D02*
X126197940Y-79260000D01*
X124850000Y-82566480D02*
X124850000Y-127173520D01*
X124850000Y-129566480D02*
X124850000Y-130480000D01*
X127122061Y-79260000D02*
X128125000Y-79260000D01*
X128125000Y-79260000D02*
X136595000Y-79260000D01*
X128250000Y-77960000D02*
X128250000Y-78780000D01*
X128250000Y-77960000D02*
X136470000Y-77960000D01*
X128250000Y-78780000D02*
X128460000Y-78780000D01*
X128460000Y-78780000D02*
X128460000Y-80176000D01*
X128460000Y-82564000D02*
X128460000Y-83780000D01*
X128760000Y-130480000D02*
X127122061Y-130480000D01*
X135960000Y-130480000D02*
X128760000Y-130480000D01*
X136260000Y-78780000D02*
X136260000Y-80176000D01*
X136260000Y-82564000D02*
X136260000Y-83780000D01*
X136260000Y-83780000D02*
X128460000Y-83780000D01*
X136470000Y-77960000D02*
X136470000Y-78780000D01*
X136470000Y-78780000D02*
X136260000Y-78780000D01*
X136595000Y-79260000D02*
X137597939Y-79260000D01*
X137597939Y-130480000D02*
X135960000Y-130480000D01*
X138522061Y-79260000D02*
X139870000Y-79260000D01*
X138522061Y-130480000D02*
X142360000Y-130480000D01*
X139870000Y-79260000D02*
X139870000Y-80173520D01*
X139870000Y-82566480D02*
X139870000Y-127173520D01*
X139870000Y-129566480D02*
X139870000Y-130480000D01*
X142360000Y-79260000D02*
X139870000Y-79260000D01*
X142630000Y-130417000D02*
X142630000Y-79323000D01*
X142970000Y-79870000D02*
X142970000Y-129870000D01*
X121750000Y-79870000D02*
G75*
G02*
X122360000Y-79260000I610000J0D01*
G01*
X122360000Y-130480000D02*
G75*
G02*
X121750000Y-129870000I-99J609901D01*
G01*
X142360000Y-79260000D02*
G75*
G02*
X142970000Y-79870000I0J-610000D01*
G01*
X142970000Y-129870000D02*
G75*
G02*
X142360000Y-130480000I-610000J0D01*
G01*
%TO.C,BZ1*%
X120600000Y-89750000D02*
G75*
G02*
X105400000Y-89750000I-7600000J0D01*
G01*
X105400000Y-89750000D02*
G75*
G02*
X120600000Y-89750000I7600000J0D01*
G01*
%TD*%
M02*
