%TF.GenerationSoftware,KiCad,Pcbnew,9.0.2*%
%TF.CreationDate,2025-06-22T19:03:17+05:30*%
%TF.ProjectId,rpiblindstick,72706962-6c69-46e6-9473-7469636b2e6b,rev?*%
%TF.SameCoordinates,Original*%
%TF.FileFunction,Copper,L2,Bot*%
%TF.FilePolarity,Positive*%
%FSLAX46Y46*%
G04 Gerber Fmt 4.6, Leading zero omitted, Abs format (unit mm)*
G04 Created by KiCad (PCBNEW 9.0.2) date 2025-06-22 19:03:17*
%MOMM*%
%LPD*%
G01*
G04 APERTURE LIST*
G04 Aperture macros list*
%AMRoundRect*
0 Rectangle with rounded corners*
0 $1 Rounding radius*
0 $2 $3 $4 $5 $6 $7 $8 $9 X,Y pos of 4 corners*
0 Add a 4 corners polygon primitive as box body*
4,1,4,$2,$3,$4,$5,$6,$7,$8,$9,$2,$3,0*
0 Add four circle primitives for the rounded corners*
1,1,$1+$1,$2,$3*
1,1,$1+$1,$4,$5*
1,1,$1+$1,$6,$7*
1,1,$1+$1,$8,$9*
0 Add four rect primitives between the rounded corners*
20,1,$1+$1,$2,$3,$4,$5,0*
20,1,$1+$1,$4,$5,$6,$7,0*
20,1,$1+$1,$6,$7,$8,$9,0*
20,1,$1+$1,$8,$9,$2,$3,0*%
%AMFreePoly0*
4,1,37,0.603843,0.796157,0.639018,0.796157,0.711114,0.766294,0.766294,0.711114,0.796157,0.639018,0.796157,0.603843,0.800000,0.600000,0.800000,-0.600000,0.796157,-0.603843,0.796157,-0.639018,0.766294,-0.711114,0.711114,-0.766294,0.639018,-0.796157,0.603843,-0.796157,0.600000,-0.800000,0.000000,-0.800000,0.000000,-0.796148,-0.078414,-0.796148,-0.232228,-0.765552,-0.377117,-0.705537,
-0.507515,-0.618408,-0.618408,-0.507515,-0.705537,-0.377117,-0.765552,-0.232228,-0.796148,-0.078414,-0.796148,0.078414,-0.765552,0.232228,-0.705537,0.377117,-0.618408,0.507515,-0.507515,0.618408,-0.377117,0.705537,-0.232228,0.765552,-0.078414,0.796148,0.000000,0.796148,0.000000,0.800000,0.600000,0.800000,0.603843,0.796157,0.603843,0.796157,$1*%
%AMFreePoly1*
4,1,37,0.000000,0.796148,0.078414,0.796148,0.232228,0.765552,0.377117,0.705537,0.507515,0.618408,0.618408,0.507515,0.705537,0.377117,0.765552,0.232228,0.796148,0.078414,0.796148,-0.078414,0.765552,-0.232228,0.705537,-0.377117,0.618408,-0.507515,0.507515,-0.618408,0.377117,-0.705537,0.232228,-0.765552,0.078414,-0.796148,0.000000,-0.796148,0.000000,-0.800000,-0.600000,-0.800000,
-0.603843,-0.796157,-0.639018,-0.796157,-0.711114,-0.766294,-0.766294,-0.711114,-0.796157,-0.639018,-0.796157,-0.603843,-0.800000,-0.600000,-0.800000,0.600000,-0.796157,0.603843,-0.796157,0.639018,-0.766294,0.711114,-0.711114,0.766294,-0.639018,0.796157,-0.603843,0.796157,-0.600000,0.800000,0.000000,0.800000,0.000000,0.796148,0.000000,0.796148,$1*%
G04 Aperture macros list end*
%TA.AperFunction,ComponentPad*%
%ADD10R,1.700000X1.700000*%
%TD*%
%TA.AperFunction,ComponentPad*%
%ADD11C,1.700000*%
%TD*%
%TA.AperFunction,ComponentPad*%
%ADD12RoundRect,0.200000X-0.600000X-0.600000X0.600000X-0.600000X0.600000X0.600000X-0.600000X0.600000X0*%
%TD*%
%TA.AperFunction,ComponentPad*%
%ADD13C,1.600000*%
%TD*%
%TA.AperFunction,ComponentPad*%
%ADD14FreePoly0,0.000000*%
%TD*%
%TA.AperFunction,ComponentPad*%
%ADD15FreePoly1,0.000000*%
%TD*%
%TA.AperFunction,ComponentPad*%
%ADD16R,2.000000X2.000000*%
%TD*%
%TA.AperFunction,ComponentPad*%
%ADD17C,2.000000*%
%TD*%
%TA.AperFunction,Conductor*%
%ADD18C,0.200000*%
%TD*%
G04 APERTURE END LIST*
D10*
%TO.P,J1,1,Pin_1*%
%TO.N,Net-(BZ1--)*%
X132250000Y-133710000D03*
D11*
%TO.P,J1,2,Pin_2*%
%TO.N,Net-(A1-GPIO3)*%
X132250000Y-136250000D03*
%TO.P,J1,3,Pin_3*%
%TO.N,Net-(A1-GPIO2)*%
X132250000Y-138790000D03*
%TO.P,J1,4,Pin_4*%
%TO.N,Net-(A1-3V3)*%
X132250000Y-141330000D03*
%TD*%
D12*
%TO.P,A1,1,GPIO0*%
%TO.N,unconnected-(A1-GPIO0-Pad1)*%
X123470000Y-80740000D03*
D13*
%TO.P,A1,2,GPIO1*%
%TO.N,unconnected-(A1-GPIO1-Pad2)*%
X123470000Y-83280000D03*
D14*
%TO.P,A1,3,GND*%
%TO.N,Net-(BZ1--)*%
X123470000Y-85820000D03*
D13*
%TO.P,A1,4,GPIO2*%
%TO.N,Net-(A1-GPIO2)*%
X123470000Y-88360000D03*
%TO.P,A1,5,GPIO3*%
%TO.N,Net-(A1-GPIO3)*%
X123470000Y-90900000D03*
%TO.P,A1,6,GPIO4*%
%TO.N,Net-(A1-GPIO4)*%
X123470000Y-93440000D03*
%TO.P,A1,7,GPIO5*%
%TO.N,unconnected-(A1-GPIO5-Pad7)*%
X123470000Y-95980000D03*
D14*
%TO.P,A1,8,GND*%
%TO.N,Net-(BZ1--)*%
X123470000Y-98520000D03*
D13*
%TO.P,A1,9,GPIO6*%
%TO.N,unconnected-(A1-GPIO6-Pad9)*%
X123470000Y-101060000D03*
%TO.P,A1,10,GPIO7*%
%TO.N,unconnected-(A1-GPIO7-Pad10)*%
X123470000Y-103600000D03*
%TO.P,A1,11,GPIO8*%
%TO.N,unconnected-(A1-GPIO8-Pad11)*%
X123470000Y-106140000D03*
%TO.P,A1,12,GPIO9*%
%TO.N,unconnected-(A1-GPIO9-Pad12)*%
X123470000Y-108680000D03*
D14*
%TO.P,A1,13,GND*%
%TO.N,Net-(BZ1--)*%
X123470000Y-111220000D03*
D13*
%TO.P,A1,14,GPIO10*%
%TO.N,unconnected-(A1-GPIO10-Pad14)*%
X123470000Y-113760000D03*
%TO.P,A1,15,GPIO11*%
%TO.N,unconnected-(A1-GPIO11-Pad15)*%
X123470000Y-116300000D03*
%TO.P,A1,16,GPIO12*%
%TO.N,unconnected-(A1-GPIO12-Pad16)*%
X123470000Y-118840000D03*
%TO.P,A1,17,GPIO13*%
%TO.N,unconnected-(A1-GPIO13-Pad17)*%
X123470000Y-121380000D03*
D14*
%TO.P,A1,18,GND*%
%TO.N,Net-(BZ1--)*%
X123470000Y-123920000D03*
D13*
%TO.P,A1,19,GPIO14*%
%TO.N,unconnected-(A1-GPIO14-Pad19)*%
X123470000Y-126460000D03*
%TO.P,A1,20,GPIO15*%
%TO.N,unconnected-(A1-GPIO15-Pad20)*%
X123470000Y-129000000D03*
%TO.P,A1,21,GPIO16*%
%TO.N,unconnected-(A1-GPIO16-Pad21)*%
X141250000Y-129000000D03*
%TO.P,A1,22,GPIO17*%
%TO.N,unconnected-(A1-GPIO17-Pad22)*%
X141250000Y-126460000D03*
D15*
%TO.P,A1,23,GND*%
%TO.N,Net-(BZ1--)*%
X141250000Y-123920000D03*
D13*
%TO.P,A1,24,GPIO18*%
%TO.N,unconnected-(A1-GPIO18-Pad24)*%
X141250000Y-121380000D03*
%TO.P,A1,25,GPIO19*%
%TO.N,unconnected-(A1-GPIO19-Pad25)*%
X141250000Y-118840000D03*
%TO.P,A1,26,GPIO20*%
%TO.N,unconnected-(A1-GPIO20-Pad26)*%
X141250000Y-116300000D03*
%TO.P,A1,27,GPIO21*%
%TO.N,unconnected-(A1-GPIO21-Pad27)*%
X141250000Y-113760000D03*
D15*
%TO.P,A1,28,GND*%
%TO.N,Net-(BZ1--)*%
X141250000Y-111220000D03*
D13*
%TO.P,A1,29,GPIO22*%
%TO.N,unconnected-(A1-GPIO22-Pad29)*%
X141250000Y-108680000D03*
%TO.P,A1,30,RUN*%
%TO.N,unconnected-(A1-RUN-Pad30)*%
X141250000Y-106140000D03*
%TO.P,A1,31,GPIO26_ADC0*%
%TO.N,unconnected-(A1-GPIO26_ADC0-Pad31)*%
X141250000Y-103600000D03*
%TO.P,A1,32,GPIO27_ADC1*%
%TO.N,unconnected-(A1-GPIO27_ADC1-Pad32)*%
X141250000Y-101060000D03*
D15*
%TO.P,A1,33,AGND*%
%TO.N,unconnected-(A1-AGND-Pad33)*%
X141250000Y-98520000D03*
D13*
%TO.P,A1,34,GPIO28_ADC2*%
%TO.N,unconnected-(A1-GPIO28_ADC2-Pad34)*%
X141250000Y-95980000D03*
%TO.P,A1,35,ADC_VREF*%
%TO.N,unconnected-(A1-ADC_VREF-Pad35)*%
X141250000Y-93440000D03*
%TO.P,A1,36,3V3*%
%TO.N,Net-(A1-3V3)*%
X141250000Y-90900000D03*
%TO.P,A1,37,3V3_EN*%
%TO.N,unconnected-(A1-3V3_EN-Pad37)*%
X141250000Y-88360000D03*
D15*
%TO.P,A1,38,GND*%
%TO.N,Net-(BZ1--)*%
X141250000Y-85820000D03*
D13*
%TO.P,A1,39,VSYS*%
%TO.N,unconnected-(A1-VSYS-Pad39)*%
X141250000Y-83280000D03*
%TO.P,A1,40,VBUS*%
%TO.N,unconnected-(A1-VBUS-Pad40)*%
X141250000Y-80740000D03*
%TD*%
D16*
%TO.P,BZ1,1,+*%
%TO.N,Net-(A1-GPIO4)*%
X113000000Y-93550000D03*
D17*
%TO.P,BZ1,2,-*%
%TO.N,Net-(BZ1--)*%
X113000000Y-85950000D03*
%TD*%
D18*
%TO.N,Net-(BZ1--)*%
X124571000Y-110119000D02*
X123470000Y-111220000D01*
X123470000Y-111220000D02*
X124571000Y-112321000D01*
X112250000Y-86000000D02*
X112430000Y-85820000D01*
X123470000Y-85820000D02*
X141250000Y-85820000D01*
X142351000Y-112321000D02*
X141250000Y-111220000D01*
X123470000Y-124562731D02*
X123470000Y-123920000D01*
X142351000Y-122819000D02*
X142351000Y-112321000D01*
X132460000Y-133710000D02*
X132500000Y-133750000D01*
X112430000Y-85820000D02*
X123470000Y-85820000D01*
X135830000Y-134000000D02*
X136500000Y-134000000D01*
X112250000Y-85950000D02*
X112250000Y-86000000D01*
X124571000Y-112321000D02*
X124571000Y-122819000D01*
X141250000Y-123920000D02*
X142351000Y-122819000D01*
X124571000Y-99621000D02*
X124571000Y-110119000D01*
X132250000Y-133710000D02*
X132460000Y-133710000D01*
X124571000Y-122819000D02*
X123470000Y-123920000D01*
X123470000Y-98520000D02*
X124571000Y-99621000D01*
%TO.N,Net-(A1-GPIO2)*%
X123470000Y-88360000D02*
X124571000Y-89461000D01*
X123013950Y-94879000D02*
X122364000Y-95528950D01*
X124571000Y-89461000D02*
X124571000Y-94234050D01*
X124972000Y-89862000D02*
X123470000Y-88360000D01*
X132250000Y-138790000D02*
X124972000Y-131512000D01*
X123926050Y-94879000D02*
X123013950Y-94879000D01*
X124571000Y-94234050D02*
X123926050Y-94879000D01*
X124972000Y-131512000D02*
X124972000Y-89862000D01*
%TO.N,Net-(A1-GPIO4)*%
X123360000Y-93550000D02*
X123470000Y-93440000D01*
X112250000Y-93550000D02*
X123360000Y-93550000D01*
%TO.N,Net-(A1-GPIO3)*%
X132250000Y-136250000D02*
X133401000Y-137401000D01*
X133401000Y-139266760D02*
X132726760Y-139941000D01*
X111699000Y-92249000D02*
X113048000Y-90900000D01*
X131773240Y-139941000D02*
X111699000Y-119866760D01*
X113048000Y-90900000D02*
X123470000Y-90900000D01*
X133401000Y-137401000D02*
X133401000Y-139266760D01*
X111699000Y-119866760D02*
X111699000Y-92249000D01*
X132726760Y-139941000D02*
X131773240Y-139941000D01*
%TO.N,Net-(A1-3V3)*%
X132250000Y-141330000D02*
X139561000Y-134019000D01*
X139561000Y-134019000D02*
X139561000Y-92589000D01*
X139561000Y-92589000D02*
X141250000Y-90900000D01*
X141250000Y-90900000D02*
X141400000Y-90900000D01*
X141400000Y-90900000D02*
X141500000Y-91000000D01*
%TO.N,unconnected-(A1-GPIO5-Pad7)*%
X124571000Y-94879000D02*
X123470000Y-95980000D01*
%TD*%
M02*
