%TF.GenerationSoftware,KiCad,Pcbnew,9.0.2*%
%TF.CreationDate,2025-06-22T19:03:17+05:30*%
%TF.ProjectId,rpiblindstick,72706962-6c69-46e6-9473-7469636b2e6b,rev?*%
%TF.SameCoordinates,Original*%
%TF.FileFunction,Soldermask,Top*%
%TF.FilePolarity,Negative*%
%FSLAX46Y46*%
G04 Gerber Fmt 4.6, Leading zero omitted, Abs format (unit mm)*
G04 Created by KiCad (PCBNEW 9.0.2) date 2025-06-22 19:03:17*
%MOMM*%
%LPD*%
G01*
G04 APERTURE LIST*
G04 Aperture macros list*
%AMRoundRect*
0 Rectangle with rounded corners*
0 $1 Rounding radius*
0 $2 $3 $4 $5 $6 $7 $8 $9 X,Y pos of 4 corners*
0 Add a 4 corners polygon primitive as box body*
4,1,4,$2,$3,$4,$5,$6,$7,$8,$9,$2,$3,0*
0 Add four circle primitives for the rounded corners*
1,1,$1+$1,$2,$3*
1,1,$1+$1,$4,$5*
1,1,$1+$1,$6,$7*
1,1,$1+$1,$8,$9*
0 Add four rect primitives between the rounded corners*
20,1,$1+$1,$2,$3,$4,$5,0*
20,1,$1+$1,$4,$5,$6,$7,0*
20,1,$1+$1,$6,$7,$8,$9,0*
20,1,$1+$1,$8,$9,$2,$3,0*%
%AMFreePoly0*
4,1,37,0.603843,0.796157,0.639018,0.796157,0.711114,0.766294,0.766294,0.711114,0.796157,0.639018,0.796157,0.603843,0.800000,0.600000,0.800000,-0.600000,0.796157,-0.603843,0.796157,-0.639018,0.766294,-0.711114,0.711114,-0.766294,0.639018,-0.796157,0.603843,-0.796157,0.600000,-0.800000,0.000000,-0.800000,0.000000,-0.796148,-0.078414,-0.796148,-0.232228,-0.765552,-0.377117,-0.705537,
-0.507515,-0.618408,-0.618408,-0.507515,-0.705537,-0.377117,-0.765552,-0.232228,-0.796148,-0.078414,-0.796148,0.078414,-0.765552,0.232228,-0.705537,0.377117,-0.618408,0.507515,-0.507515,0.618408,-0.377117,0.705537,-0.232228,0.765552,-0.078414,0.796148,0.000000,0.796148,0.000000,0.800000,0.600000,0.800000,0.603843,0.796157,0.603843,0.796157,$1*%
%AMFreePoly1*
4,1,37,0.000000,0.796148,0.078414,0.796148,0.232228,0.765552,0.377117,0.705537,0.507515,0.618408,0.618408,0.507515,0.705537,0.377117,0.765552,0.232228,0.796148,0.078414,0.796148,-0.078414,0.765552,-0.232228,0.705537,-0.377117,0.618408,-0.507515,0.507515,-0.618408,0.377117,-0.705537,0.232228,-0.765552,0.078414,-0.796148,0.000000,-0.796148,0.000000,-0.800000,-0.600000,-0.800000,
-0.603843,-0.796157,-0.639018,-0.796157,-0.711114,-0.766294,-0.766294,-0.711114,-0.796157,-0.639018,-0.796157,-0.603843,-0.800000,-0.600000,-0.800000,0.600000,-0.796157,0.603843,-0.796157,0.639018,-0.766294,0.711114,-0.711114,0.766294,-0.639018,0.796157,-0.603843,0.796157,-0.600000,0.800000,0.000000,0.800000,0.000000,0.796148,0.000000,0.796148,$1*%
G04 Aperture macros list end*
%ADD10R,1.700000X1.700000*%
%ADD11C,1.700000*%
%ADD12RoundRect,0.200000X-0.600000X-0.600000X0.600000X-0.600000X0.600000X0.600000X-0.600000X0.600000X0*%
%ADD13C,1.600000*%
%ADD14FreePoly0,0.000000*%
%ADD15FreePoly1,0.000000*%
%ADD16R,2.000000X2.000000*%
%ADD17C,2.000000*%
G04 APERTURE END LIST*
D10*
%TO.C,J1*%
X132250000Y-133710000D03*
D11*
X132250000Y-136250000D03*
X132250000Y-138790000D03*
X132250000Y-141330000D03*
%TD*%
D12*
%TO.C,A1*%
X123470000Y-80740000D03*
D13*
X123470000Y-83280000D03*
D14*
X123470000Y-85820000D03*
D13*
X123470000Y-88360000D03*
X123470000Y-90900000D03*
X123470000Y-93440000D03*
X123470000Y-95980000D03*
D14*
X123470000Y-98520000D03*
D13*
X123470000Y-101060000D03*
X123470000Y-103600000D03*
X123470000Y-106140000D03*
X123470000Y-108680000D03*
D14*
X123470000Y-111220000D03*
D13*
X123470000Y-113760000D03*
X123470000Y-116300000D03*
X123470000Y-118840000D03*
X123470000Y-121380000D03*
D14*
X123470000Y-123920000D03*
D13*
X123470000Y-126460000D03*
X123470000Y-129000000D03*
X141250000Y-129000000D03*
X141250000Y-126460000D03*
D15*
X141250000Y-123920000D03*
D13*
X141250000Y-121380000D03*
X141250000Y-118840000D03*
X141250000Y-116300000D03*
X141250000Y-113760000D03*
D15*
X141250000Y-111220000D03*
D13*
X141250000Y-108680000D03*
X141250000Y-106140000D03*
X141250000Y-103600000D03*
X141250000Y-101060000D03*
D15*
X141250000Y-98520000D03*
D13*
X141250000Y-95980000D03*
X141250000Y-93440000D03*
X141250000Y-90900000D03*
X141250000Y-88360000D03*
D15*
X141250000Y-85820000D03*
D13*
X141250000Y-83280000D03*
X141250000Y-80740000D03*
%TD*%
D16*
%TO.C,BZ1*%
X113000000Y-93550000D03*
D17*
X113000000Y-85950000D03*
%TD*%
M02*
